# xmcd CD database file generated by Grip 3.0.3
# 
# Track frame offsets:
#       150
#       20023
#       37304
#       54882
#       72611
#       90080
#       104255
#       120070
#       136732
#       154624
# 
# Disc length: 2379 seconds
# 
# Revision: 2
# Processed by: cddbd v1.4PL0 Copyright (c) Steve Scherf et al.
# Submitted via: Grip 3.0.3
# 
DISCID=7509490a
DTITLE=Nickelback - Silver Side Up
DYEAR=2001
DGENRE=Rock and Roll
TTITLE0=Never Again
TTITLE1=How You Remind Me
TTITLE2=Woke Up This Morning
TTITLE3=Too Bad
TTITLE4=Just For
TTITLE5=Hollywood
TTITLE6=Money Bought
TTITLE7=Where Do I Hide
TTITLE8=Hangnail
TTITLE9=Good Times Gone
EXTD=
EXTT0=
EXTT1=
EXTT2=
EXTT3=
EXTT4=
EXTT5=
EXTT6=
EXTT7=
EXTT8=
EXTT9=
PLAYORDER=
